<svg version="1.2" xmlns="http://www.w3.org/2000/svg" viewBox="0 0 110 115" width="110" height="115">
	<title>modelCalibration</title>
	<style>
		tspan { white-space:pre } 
		.s0 { fill: #000000 } 
		.t1 { font-size: 5px;fill: #000000;font-family: "Arbeit  Regular" } 
	</style>
	<path class="s0" d="m99.1 69.1c-0.4-0.5-0.9-0.8-1.4-0.9l-13.6-28.7h4c0.9 0 1.7-0.4 2.4-1 0.8-0.8 1.1-2 0.8-3.2-0.3-1.4-1.7-2.5-3.3-2.5h-29.2v-5.3c1.8-1.3 2.8-3.3 2.8-5.5 0-3.6-2.9-6.6-6.6-6.6-3.7 0-6.7 3-6.7 6.6 0 2.2 1.1 4.2 2.8 5.5v5.3h-29.1c-0.9 0-1.8 0.4-2.4 1-0.8 0.8-1.2 2-0.9 3.2 0.4 1.5 1.8 2.5 3.3 2.5h3.8l-13.2 28.7h-0.3c-0.7 0-1.3 0.4-1.6 0.9-0.3 0.6-0.3 1.3 0 1.9l2.2 3.8c1 1.6 2.7 2.6 4.5 2.6h20.5c2.1 0 4-1.3 4.8-3.2l1.5-3.4c0.3-0.6 0.2-1.2-0.1-1.7-0.4-0.5-0.9-0.9-1.5-0.9l-13.5-28.7h22v50.1h-9.2c-2.5 0-4.5 2-4.5 4.4v1.9h-1.7c-2.5 0-4.5 2-4.5 4.5v3.3c0 0.6 0.5 1 1.1 1h45.4c0.6 0 1.1-0.4 1.1-1v-3.3c0-2.5-2-4.5-4.5-4.5h-1.8v-1.9c0-2.4-2-4.4-4.5-4.4h-9.2v-50.1h21.9l-12.9 28.7h-0.6c-0.6 0-1.2 0.4-1.5 0.9-0.4 0.6-0.4 1.3 0 1.9l2.2 3.8c0.9 1.6 2.6 2.6 4.5 2.6h20.4c2.1 0 4-1.3 4.8-3.2l1.6-3.4c0.2-0.6 0.2-1.2-0.2-1.8zm-71.6-28.1l12.9 27.3h-25.4zm13.3 32.5c-0.5 1.1-1.6 1.8-2.8 1.8h-20.5c-1.1 0-2.1-0.6-2.7-1.5l-2-3.4h29.4c0 0-1.4 3.1-1.4 3.1zm14.2-55.9c2.5 0 4.6 2 4.6 4.5 0 1.6-0.9 3.1-2.3 4-1 0.6-2.3 0.7-3.4 0.4q-0.6-0.1-1.2-0.5c-1.3-0.8-2.2-2.3-2.2-3.9 0-2.5 2-4.5 4.5-4.5zm21.7 82.9v2.2h-43.3v-2.2c0-1.3 1-2.4 2.4-2.4h38.5c1.3 0 2.4 1 2.4 2.4zm-6.2-6.4v1.9h-30.9v-1.9c0-1.3 1-2.4 2.4-2.4h26.1c1.3 0 2.4 1.1 2.4 2.4zm-17.2-4.5v-51.1c0-0.6-0.5-1.1-1.1-1.1h-24.7-0.1-5.3c-0.6 0-1.2-0.3-1.3-0.9-0.1-0.4 0-0.8 0.3-1.1 0.3-0.3 0.6-0.4 0.9-0.4h30.2c0.6 0 1.1-0.5 1.1-1.1v-5.4q0.8 0.3 1.7 0.3 0.9 0 1.8-0.3v5.4c0 0.6 0.4 1.1 1 1.1h30.3c0.6 0 1.1 0.4 1.3 0.9 0.1 0.4 0 0.9-0.4 1.2-0.1 0.2-0.4 0.4-0.8 0.4h-5.8-24.6c-0.6 0-1 0.4-1 1v51.1h-3.5zm29.2-48.6l12.9 27.3h-25.2c0 0 12.3-27.3 12.3-27.3zm13.3 32.5c-0.5 1.1-1.7 1.8-2.9 1.8h-20.4c-1.2 0-2.2-0.6-2.7-1.5l-2-3.4h29.3c0 0-1.3 3.1-1.3 3.1z"/>
	<text id="Created by BEDESCHI LEONARDO" style="transform: matrix(1,0,0,1,5,127.5)" >
		<tspan x="0" y="0" class="t1">Created by BEDESCHI LEONARDO
</tspan>
	</text>
	<text id="from Noun Project" style="transform: matrix(1,0,0,1,5,132.5)" >
		<tspan x="0" y="0" class="t1">from Noun Project
</tspan>
	</text>
</svg>